<?xml version="1.0" encoding="UTF-8"?>
<svg version="1.1" xmlns="http://www.w3.org/2000/svg" width="1024" height="1024">
<path d="M0 0 C337.92 0 675.84 0 1024 0 C1024 337.92 1024 675.84 1024 1024 C686.08 1024 348.16 1024 0 1024 C0 686.08 0 348.16 0 0 Z " fill="#050300" transform="translate(0,0)"/>
<path d="M0 0 C48.528348 -0.09153386 97.05668728 -0.16202772 145.58510461 -0.20426132 C151.31292145 -0.20926421 157.04073811 -0.21444149 162.76855469 -0.21972656 C163.90887105 -0.2207758 165.04918741 -0.22182505 166.22405881 -0.22290608 C184.69354679 -0.24031644 203.16298503 -0.27185762 221.63244349 -0.30861118 C240.58052694 -0.34600303 259.52858433 -0.36823214 278.47670317 -0.37635398 C290.17090563 -0.38184539 301.86496749 -0.39919631 313.55912668 -0.43166587 C321.57571652 -0.45279204 329.59223356 -0.45920433 337.60884923 -0.45400551 C342.23564559 -0.45144079 346.86219606 -0.45540224 351.48894882 -0.4768219 C355.72573302 -0.49629302 359.96210606 -0.49726643 364.19890922 -0.48359558 C365.73067824 -0.48190607 367.26247295 -0.48697564 368.79419142 -0.49953273 C378.6570125 -0.57567955 385.61418181 0.01046262 393.26869202 6.78094482 C394.35211085 7.84996708 395.42497004 8.92976868 396.48852539 10.01855469 C397.08317093 10.61100983 397.67781647 11.20346497 398.29048157 11.81387329 C400.23597084 13.75706843 402.16684835 15.71410053 404.09765625 17.671875 C405.458702 19.03785217 406.82056817 20.40301231 408.18321228 21.76739502 C411.03099236 24.62279486 413.87220887 27.48450551 416.70825195 30.3515625 C420.32636933 34.00919605 423.9551184 37.65603378 427.58818913 41.29880905 C431.07402711 44.79467052 434.55494241 48.2954158 438.03515625 51.796875 C438.69090197 52.45601646 439.34664768 53.11515793 440.02226448 53.79427338 C452.0612695 65.90844994 452.0612695 65.90844994 457.47642517 72.25997925 C460.27748204 75.45896691 463.32696183 78.40912655 466.359375 81.38671875 C467.73580735 82.75051958 469.11210557 84.11445579 470.48828125 85.47851562 C472.6281494 87.59349012 474.76960882 89.70680568 476.91357422 91.81762695 C479.00408412 93.87791892 481.08831517 95.94440184 483.171875 98.01171875 C483.81251892 98.63890305 484.45316284 99.26608734 485.11322021 99.91227722 C492.49724631 107.25457055 492.49724631 107.25457055 493.3984375 112.17578125 C493.23286603 127.27038043 482.91225015 135.23792622 472.82958984 145.31567383 C471.82170726 146.32655509 470.81402769 147.3376388 469.80653381 148.34890747 C467.09216883 151.07203759 464.37463396 153.79198205 461.65620375 156.51105332 C459.95551086 158.21246017 458.25553329 159.91457841 456.55580521 161.61694908 C450.61980069 167.56217717 444.68124719 173.50484511 438.74023438 179.44506836 C433.21028775 184.97441269 427.68596107 190.50932843 422.16420019 196.04684621 C417.41175159 200.8123707 412.65545521 205.57403151 407.89614451 210.33270282 C405.05838845 213.17020422 402.22219876 216.00922865 399.3898735 218.85215187 C396.72994105 221.52176787 394.06524666 224.18653711 391.39683342 226.84767532 C390.41996808 227.82349565 389.44480115 228.80101968 388.47148705 229.78038216 C387.1404509 231.11915159 385.80260185 232.4511371 384.46444702 233.78279114 C383.7185903 234.52919263 382.97273357 235.27559412 382.20427513 236.04461384 C376.70102678 240.92647977 372.17840796 242.122235 364.97037125 242.13422108 C363.72725182 242.13867892 362.48413239 242.14313676 361.20334268 242.14772969 C359.82145452 242.1476404 358.43956636 242.14745055 357.05767822 242.14717102 C355.59149762 242.1504706 354.12531793 242.15419636 352.65913939 242.1583125 C348.62466004 242.16832972 344.59019557 242.17204884 340.55570555 242.17470181 C336.2065642 242.17860561 331.85743462 242.1881838 327.50830078 242.19691467 C317.0033532 242.21667549 306.49840465 242.22674417 295.99344313 242.23564246 C291.04736304 242.24002542 286.10128402 242.24539216 281.15520477 242.25063133 C264.71549324 242.26764216 248.27578237 242.2821371 231.83606339 242.28938007 C227.57007089 242.29128998 223.30407841 242.29321032 219.03808594 242.29516602 C217.97778757 242.29564976 216.9174892 242.2961335 215.82506058 242.2966319 C198.64265877 242.30493512 181.46032651 242.33027763 164.27795509 242.36274669 C146.64055487 242.39580419 129.00319002 242.41382759 111.36575866 242.41702431 C101.46157121 242.41919047 91.55748522 242.42795475 81.65332794 242.45348549 C73.22002235 242.47517447 64.78684288 242.48325173 56.35351256 242.47351871 C52.05072889 242.46896896 47.74820555 242.47089934 43.44545746 242.49028015 C39.50488247 242.50787639 35.5647584 242.50694314 31.62417886 242.49138286 C30.20020311 242.4890014 28.77619642 242.49335828 27.35226801 242.50521151 C18.95775359 242.57075043 11.99882053 242.5585089 5.49052835 236.62348729 C0.03616478 230.63804252 -0.29227475 224.35708754 -0.24050903 216.69863892 C-0.24307231 215.30662484 -0.24307231 215.30662484 -0.24568737 213.88648927 C-0.24897745 210.78183187 -0.23798639 207.67739135 -0.22705078 204.57275391 C-0.22648656 202.34529628 -0.22680343 200.11783827 -0.22793579 197.89038086 C-0.22850989 191.84544183 -0.2167462 185.80058208 -0.20278788 179.75566149 C-0.19029015 173.43756544 -0.18911077 167.11946759 -0.18673706 160.80136108 C-0.18122601 150.19747382 -0.16873135 139.59361788 -0.15087891 128.98974609 C-0.13251243 118.06917465 -0.11835968 107.14861112 -0.10986328 96.22802734 C-0.10933783 95.55454268 -0.10881239 94.88105802 -0.10827102 94.18716474 C-0.10566089 90.80838849 -0.10313348 87.42961219 -0.10064721 84.05083585 C-0.07992395 56.03387033 -0.04455751 28.01693698 0 0 Z " fill="#E6A51D" transform="translate(298,456)"/>
<path d="M0 0 C53.57560591 -4.71268046 53.57560591 -4.71268046 66.328125 5.5078125 C71.96131848 10.50027484 76.59413651 16.43585315 80.72314453 22.70507812 C86.48150478 31.33378028 94.30124417 38.4353546 101.62109375 45.71875 C102.73232123 46.82810833 103.84332512 47.93769067 104.95411682 49.04748535 C107.85344371 51.94302616 110.75576272 54.83554907 113.65875244 57.72741699 C116.63046306 60.68882864 119.59928267 63.65313554 122.56835938 66.6171875 C128.3761082 72.4142681 134.18702673 78.2081582 140 84 C138.66593057 86.96355684 137.20816199 89.03871019 134.90788269 91.32589722 C134.27288345 91.96220062 133.63788422 92.59850403 132.98364258 93.25408936 C132.28803223 93.94093811 131.59242188 94.62778687 130.87573242 95.33544922 C130.14220047 96.06766693 129.40866852 96.79988464 128.65290833 97.55429077 C126.22498877 99.97571543 123.79017557 102.39008911 121.35546875 104.8046875 C119.66585874 106.48802598 117.9767636 108.17188141 116.28816223 109.85623169 C111.83746069 114.2936208 107.38123433 118.72541659 102.92340088 123.15563965 C95.79752448 130.2384349 88.67827583 137.32787552 81.56234169 144.42065811 C79.07814271 146.89465795 76.59054332 149.36520035 74.10258484 151.8354187 C72.57242318 153.35874875 71.04237274 154.88219054 69.51245117 156.40576172 C68.82291351 157.08856201 68.13337585 157.7713623 67.42294312 158.47485352 C64.53061152 161.36037227 61.73777035 164.2436696 59.1554718 167.41213989 C57 170 57 170 55 171 C53.2433077 171.09072287 51.4831499 171.11754144 49.72412109 171.11352539 C48.07263565 171.11341209 48.07263565 171.11341209 46.38778687 171.11329651 C45.19505157 171.10813522 44.00231628 171.10297394 42.7734375 171.09765625 C41.55548492 171.0962413 40.33753235 171.09482635 39.08267212 171.09336853 C35.1800901 171.08775639 31.27756477 171.07520179 27.375 171.0625 C24.73437583 171.05748657 22.09375076 171.05292339 19.453125 171.04882812 C12.96873055 171.03778301 6.48436932 171.02103302 0 171 C0.66 169.68 1.32 168.36 2 167 C2.66 167 3.32 167 4 167 C4.33 166.01 4.66 165.02 5 164 C5.66 164 6.32 164 7 164 C7.34930824 163.16222519 7.34930824 163.16222519 7.70567322 162.30752563 C9.33335739 159.40569048 11.34507271 157.42331683 13.70922852 155.07958984 C14.18583923 154.60429337 14.66244995 154.12899689 15.15350342 153.63929749 C16.72408433 152.07518825 18.30151621 150.51817685 19.87890625 148.9609375 C20.97275212 147.87336414 22.06608302 146.78527263 23.15892029 145.69668579 C26.032918 142.83597538 28.91243352 139.98088978 31.7935791 137.12738037 C36.40997296 132.55415271 41.01961981 127.97414839 45.62608147 123.39091873 C47.23742039 121.7898186 48.8521199 120.19216511 50.46717834 118.59481812 C51.45162174 117.61720073 52.4359569 116.63947434 53.42016602 115.66162109 C54.28239273 114.8076474 55.14461945 113.95367371 56.03297424 113.07382202 C58.04342314 111.15569807 58.04342314 111.15569807 59 109 C-41.98 109 -142.96 109 -247 109 C-247 93.49 -247 77.98 -247 62 C-95.035 61.505 -95.035 61.505 60 61 C40.2 41.2 20.4 21.4 0 1 C0 0.67 0 0.34 0 0 Z " fill="#060400" transform="translate(581,489)"/>
<path d="M0 0 C2.45445495 1.50777772 4.57557565 2.97476554 6.8125 4.75 C8.12940154 5.75496434 9.44714732 6.75882313 10.765625 7.76171875 C11.45333984 8.29071777 12.14105469 8.8197168 12.84960938 9.36474609 C16.53597702 12.16802612 20.30137608 14.86084198 24.0625 17.5625 C25.59377036 18.66663844 27.12502062 19.77080474 28.65625 20.875 C38.50492367 27.96397527 48.3906592 34.99838966 58.31665039 41.97875977 C59.64684503 42.91538152 60.97535422 43.85440391 62.30175781 44.79638672 C63.69173595 45.78152074 65.09072311 46.75393243 66.4921875 47.72265625 C66.98976563 48.14417969 67.48734375 48.56570313 68 49 C68 49.66 68 50.32 68 51 C62.95081002 52.77944344 57.90114888 54.55754149 52.85107422 56.33447266 C51.13838361 56.93730631 49.42581526 57.54048744 47.71337891 58.14404297 C42.86035901 59.85437085 38.00460049 61.55648067 33.14526367 63.2487793 C31.20379903 63.92863439 29.26666555 64.62082708 27.33007812 65.31445312 C26.28787109 65.67990234 25.24566406 66.04535156 24.171875 66.421875 C23.30143555 66.7322168 22.43099609 67.04255859 21.53417969 67.36230469 C17.80018269 68.30191935 14.38333348 68.70578239 10.89453125 66.92578125 C9.86392578 66.12720703 9.86392578 66.12720703 8.8125 65.3125 C3.91146097 61.66435817 -1.07289434 58.18400248 -6.125 54.75 C-7.78811795 53.6151071 -9.45087712 52.47968825 -11.11328125 51.34375 C-11.93393066 50.78300781 -12.75458008 50.22226562 -13.60009766 49.64453125 C-15.83532781 48.11284149 -18.06545576 46.57413414 -20.29296875 45.03125 C-28.75273615 39.17472198 -37.30531875 33.50210298 -46 28 C-46.3966755 32.16970527 -46.34141954 36.07272652 -43.87304688 39.61914062 C-41.51938726 42.40976658 -38.97092367 44.97186283 -36.37109375 47.53125 C-34 50 -34 50 -34 52 C-33.34 52 -32.68 52 -32 52 C-30.62787699 53.53195272 -29.3284554 55.12921081 -28.0625 56.75 C-24.12250526 61.69418171 -19.99372851 66.36378469 -15.63110352 70.93847656 C-13.22478343 73.49974743 -11.4815423 75.82719552 -10 79 C-11.96488616 79.761982 -13.92978975 80.5239191 -15.89477539 81.28564453 C-17.55127671 81.92972172 -19.20671351 82.57654332 -20.86108398 83.22607422 C-24.35530217 84.59669434 -27.84164939 85.94484212 -31.38671875 87.1796875 C-32.26972656 87.49164063 -33.15273438 87.80359375 -34.0625 88.125 C-34.81660156 88.37507813 -35.57070313 88.62515625 -36.34765625 88.8828125 C-38.22565961 89.9333411 -38.22565961 89.9333411 -38.99609375 92.3671875 C-39.25928634 95.08423851 -39.25928634 95.08423851 -37.44848633 97.12646484 C-34.15003216 99.65037922 -31.95497314 99.54172175 -27.828125 99.609375 C-27.1457074 99.62591125 -26.46328979 99.64244751 -25.76019287 99.65948486 C-23.59003646 99.70789839 -21.42058028 99.72931865 -19.25 99.75 C-17.77470448 99.77816562 -16.29944149 99.80809389 -14.82421875 99.83984375 C-11.21629802 99.91365225 -7.60851028 99.96326894 -4 100 C-5.33561358 103.6289894 -6.95983 106.69851057 -9.08984375 109.921875 C-9.70375977 110.85628418 -10.31767578 111.79069336 -10.95019531 112.75341797 C-11.60600586 113.74229004 -12.26181641 114.73116211 -12.9375 115.75 C-14.30624657 117.83056012 -15.67473437 119.91129051 -17.04296875 121.9921875 C-17.71763184 123.01538086 -18.39229492 124.03857422 -19.08740234 125.09277344 C-21.66238446 129.00685144 -24.20966925 132.93837818 -26.75 136.875 C-27.62368645 138.22656991 -28.49738429 139.57813246 -29.37109375 140.9296875 C-30.72706071 143.028755 -32.08266606 145.1280552 -33.43798828 147.22753906 C-34.41901489 148.74707282 -35.40029725 150.26644149 -36.38183594 151.78564453 C-37.29582984 153.20030745 -38.20929449 154.61531256 -39.12207031 156.03076172 C-39.94816219 157.30920706 -40.79167631 158.57662233 -41.65505981 159.83018494 C-43.06706045 161.95444683 -43.06706045 161.95444683 -43.88345337 164.3235321 C-45.24020049 167.33551071 -46.39104317 168.93541093 -49 171 C-55.46193623 172.36339339 -61.86407665 172.1449439 -68.44140625 172.01953125 C-70.37140556 172.01289282 -72.30141933 172.00966283 -74.23143005 172.00968933 C-78.27117659 172.00040628 -82.30912149 171.96121167 -86.34838867 171.89868164 C-91.5226834 171.81937313 -96.69519918 171.79702612 -101.87004185 171.79483509 C-105.8533404 171.78985942 -109.83625904 171.76357759 -113.81941032 171.72995567 C-115.72714117 171.71472806 -117.63491394 171.70404527 -119.542696 171.69800758 C-122.20959931 171.68460558 -124.8747784 171.64468862 -127.54125977 171.59692383 C-128.32737137 171.59716553 -129.11348297 171.59740723 -129.92341614 171.59765625 C-133.31282256 171.51176418 -135.89443228 171.04795822 -138.98724365 169.64292908 C-142.19029115 165.43704128 -141.70483514 161.26529206 -141.6628418 156.11621094 C-141.67320969 155.00681656 -141.68357758 153.89742218 -141.69425964 152.75440979 C-141.7214004 149.08069025 -141.71164965 145.408159 -141.69921875 141.734375 C-141.70512592 139.18092515 -141.7123719 136.62747808 -141.72090149 134.07403564 C-141.73279594 128.71732631 -141.72647716 123.36104763 -141.70678711 118.00439453 C-141.6844617 111.82611528 -141.70197284 105.648883 -141.73983639 99.47070289 C-141.77493255 93.51512691 -141.77623972 87.55987448 -141.76395607 81.60419464 C-141.7624707 79.07648849 -141.77014402 76.54875953 -141.78720665 74.02111053 C-141.80722032 70.48043715 -141.78874777 66.94194108 -141.76049805 63.40136719 C-141.77421448 62.36107864 -141.78793091 61.3207901 -141.80206299 60.24897766 C-141.70306434 54.02488487 -140.61957847 50.37711499 -136.61687946 45.56088638 C-130.59271261 39.74533845 -121.31198862 37.9565081 -113.53039551 35.42877197 C-109.51575992 34.12376289 -105.5085068 32.79634518 -101.5 31.47265625 C-100.65068909 31.1927887 -99.80137817 30.91292114 -98.92633057 30.62457275 C-89.93738587 27.65890318 -80.97319681 24.6216284 -72.01412964 21.56704712 C-69.24841275 20.62445905 -66.48175885 19.68465648 -63.71508789 18.74487305 C-54.30092342 15.53985843 -44.91468263 12.26938942 -35.55859375 8.8984375 C-33.71264167 8.23725363 -31.8666143 7.57627996 -30.02050781 6.91552734 C-26.54072336 5.66981968 -23.0690009 4.40441109 -19.60058594 3.12744141 C-18.02957369 2.56335608 -16.45829891 2.00000116 -14.88671875 1.4375 C-14.18767929 1.1737558 -13.48863983 0.9100116 -12.76841736 0.63827515 C-8.1328729 -0.9949286 -4.76971792 -1.15748052 0 0 Z " fill="#E7A61F" transform="translate(439,255)"/>
<path d="M0 0 C2.5942688 -0.36076355 2.5942688 -0.36076355 5.91845703 -0.34057617 C7.15959259 -0.34034958 8.40072815 -0.34012299 9.67947388 -0.33988953 C11.03892372 -0.32456848 12.39836991 -0.30892047 13.7578125 -0.29296875 C15.1450047 -0.28737427 16.53220283 -0.28310347 17.91940308 -0.28010559 C21.57249281 -0.26864497 25.22522534 -0.23916786 28.87817383 -0.20599365 C32.60493131 -0.17531867 36.33174645 -0.16160579 40.05859375 -0.14648438 C47.37255877 -0.11429886 54.68622936 -0.06308839 62 0 C60.73708432 2.2372457 59.47102609 4.47261311 58.203125 6.70703125 C57.84879395 7.3354895 57.49446289 7.96394775 57.12939453 8.6114502 C55.15060592 12.09252603 53.09620227 15.43594427 50.75 18.6875 C47.38087993 23.35832555 44.30953096 28.18625135 41.25 33.0625 C37.28536931 39.37755478 33.30125481 45.67757916 29.25 51.9375 C28.83911133 52.57373291 28.42822266 53.20996582 28.00488281 53.86547852 C27.18748404 55.12652063 26.35637999 56.37879814 25.51098633 57.62124634 C23.91251129 60.05421296 23.91251129 60.05421296 22.47650146 62.99617004 C17.84892792 71.36439085 17.84892792 71.36439085 12.92779541 73.05613708 C9.18962349 73.38926798 5.62373012 73.35143985 1.875 73.171875 C0.5188757 73.14945485 -0.83734671 73.13239147 -2.19360352 73.12042236 C-5.74073072 73.07488792 -9.28183239 72.9573276 -12.82659912 72.82397461 C-16.45258032 72.70055948 -20.07954925 72.64627597 -23.70703125 72.5859375 C-30.80713329 72.45775833 -37.90317071 72.25334876 -45 72 C-43.60980374 68.41428673 -42.07384496 65.35738542 -39.9453125 62.1484375 C-39.33679443 61.22474365 -38.72827637 60.3010498 -38.10131836 59.34936523 C-37.4491333 58.36782471 -36.79694824 57.38628418 -36.125 56.375 C-34.75281576 54.29108222 -33.38173596 52.20643683 -32.01171875 50.12109375 C-31.33028809 49.08452637 -30.64885742 48.04795898 -29.94677734 46.97998047 C-27.23327768 42.82635908 -24.57695855 38.63844275 -21.9375 34.4375 C-21.46731445 33.68968262 -20.99712891 32.94186523 -20.51269531 32.17138672 C-19.53850229 30.62195278 -18.56438265 29.07247269 -17.59033203 27.52294922 C-14.53304068 22.67277286 -11.45339371 17.83679935 -8.375 13 C-7.77034912 12.04923584 -7.16569824 11.09847168 -6.54272461 10.11889648 C-5.69786499 8.79160522 -5.69786499 8.79160522 -4.8359375 7.4375 C-4.08642822 6.25994141 -4.08642822 6.25994141 -3.32177734 5.05859375 C-2.23187185 3.36112735 -1.1189674 1.6784511 0 0 Z " fill="#E7A71F" transform="translate(481,354)"/>
<path d="M0 0 C1.06367294 0.00222061 2.12734589 0.00444122 3.22325134 0.00672913 C5.02500572 0.00684242 5.02500572 0.00684242 6.86315918 0.00695801 C8.17042465 0.01211929 9.47769012 0.01728058 10.8245697 0.02259827 C12.16835477 0.02446253 13.51214052 0.02588639 14.85592651 0.02688599 C18.39873622 0.0307105 21.94150515 0.0405402 25.48429871 0.05158997 C29.09706572 0.06180552 32.7098393 0.06638392 36.32261658 0.07142639 C43.41573225 0.08216254 50.50882019 0.09923816 57.60191345 0.12025452 C54.9410192 4.98438553 52.27030502 9.79913672 49.21910095 14.43275452 C48.61485291 15.35427307 48.01060486 16.27579163 47.38804626 17.22523499 C46.75737244 18.18059143 46.12669861 19.13594788 45.47691345 20.12025452 C44.13551887 22.16436214 42.79437479 24.20863417 41.45347595 26.25306702 C40.79766541 27.25112366 40.14185486 28.2491803 39.46617126 29.27748108 C36.9116446 33.17283316 34.37888924 37.08199365 31.85191345 40.99525452 C31.41919128 41.66468079 30.98646912 42.33410706 30.54063416 43.02381897 C29.22733082 45.05570831 27.91457327 47.08794939 26.60191345 49.12025452 C24.62330789 52.18311753 22.64401614 55.2455359 20.66441345 58.30775452 C19.99103943 59.35068665 19.99103943 59.35068665 19.30406189 60.41468811 C18.87770447 61.07420471 18.45134705 61.73372131 18.0120697 62.41322327 C17.64218933 62.98580872 17.27230896 63.55839417 16.89122009 64.14833069 C16.4657489 64.79906555 16.04027771 65.44980042 15.60191345 66.12025452 C15.17096375 67.17462708 14.74001404 68.22899963 14.29600525 69.31532288 C11.06755276 72.67659978 10.15740228 72.58229923 5.63999939 72.80140686 C3.1218959 72.80045663 0.60366886 72.76654085 -1.91371155 72.70619202 C-3.25319009 72.69499567 -4.59269327 72.68645754 -5.9322052 72.6804657 C-9.45098696 72.6576002 -12.96827306 72.59870189 -16.48646545 72.53224182 C-20.07919582 72.47076693 -23.67216888 72.44343991 -27.26527405 72.41322327 C-34.3101553 72.3489526 -41.35402308 72.24660415 -48.39808655 72.12025452 C-47.46119952 70.38329898 -46.52192767 68.64762967 -45.5816803 66.91249084 C-45.05888489 65.94579971 -44.53608948 64.97910858 -43.99745178 63.98312378 C-41.6567522 59.79326349 -39.05144943 55.80417763 -36.39808655 51.80775452 C-35.25252837 50.06493951 -34.10803548 48.3214239 -32.9644928 46.57728577 C-32.37813049 45.68348206 -31.79176819 44.78967834 -31.18763733 43.86878967 C-28.1942836 39.27135771 -25.268241 34.63154085 -22.33558655 29.99525452 C-17.8268667 22.88212668 -13.25700194 15.81523102 -8.58558655 8.80775452 C-7.82072937 7.65992493 -7.82072937 7.65992493 -7.04042053 6.48890686 C-2.78578722 0.13969617 -2.78578722 0.13969617 0 0 Z " fill="#E7A820" transform="translate(610.3980865478516,353.87974548339844)"/>
<path d="M0 0 C1.09613613 0.79872699 2.18558609 1.60668047 3.26953125 2.421875 C4.51946216 3.33863588 5.76946571 4.25529771 7.01953125 5.171875 C7.67953125 5.66042969 8.33953125 6.14898437 9.01953125 6.65234375 C11.83890683 8.72949735 14.68442098 10.76941112 17.52905273 12.81176758 C26.99374489 19.61351594 36.38943262 26.50885178 45.75390625 33.44775391 C47.32044043 34.60786972 48.88817179 35.7663705 50.45703125 36.92333984 C52.71008702 38.58543786 54.95909606 40.25286081 57.20703125 41.921875 C57.88846191 42.42340088 58.56989258 42.92492676 59.27197266 43.44165039 C63.96754792 46.94290834 63.96754792 46.94290834 65.08203125 49.171875 C57.78710938 51.60351562 50.4921875 54.03515625 43.19726562 56.46679688 C42.40792633 56.73017853 41.61858704 56.99356018 40.80532837 57.2649231 C39.21513683 57.79444399 37.62429278 58.32200933 36.0328064 58.84762573 C32.27001297 60.09282795 28.52247978 61.36315921 24.79736328 62.71728516 C24.1266127 62.95590775 23.45586212 63.19453033 22.76478577 63.44038391 C20.96644131 64.08232157 19.17353219 64.73942992 17.38110352 65.39770508 C12.83058759 66.46554242 9.096166 66.20468933 4.90478516 64.05541992 C4.29554199 63.59240479 3.68629883 63.12938965 3.05859375 62.65234375 C2.35669922 62.13091797 1.65480469 61.60949219 0.93164062 61.07226562 C0.19751953 60.50701172 -0.53660156 59.94175781 -1.29296875 59.359375 C-2.89378409 58.16436305 -4.49536453 56.97037542 -6.09765625 55.77734375 C-6.90299805 55.17196777 -7.70833984 54.5665918 -8.53808594 53.94287109 C-12.11505491 51.28106017 -15.7638513 48.72615963 -19.41796875 46.171875 C-33.38227065 36.35332676 -47.16995737 26.29024915 -60.91796875 16.171875 C-58.32372036 14.44237607 -56.43565271 13.53973142 -53.54296875 12.54296875 C-52.20758057 12.0797522 -52.20758057 12.0797522 -50.84521484 11.60717773 C-49.39622803 11.11326538 -49.39622803 11.11326538 -47.91796875 10.609375 C-46.91717285 10.26656494 -45.91637695 9.92375488 -44.88525391 9.57055664 C-42.7187954 8.83015305 -40.55160868 8.09187765 -38.38378906 7.35546875 C-34.77249646 6.12219554 -31.16948712 4.86641824 -27.56640625 3.609375 C-25.14219997 2.77524817 -22.71772592 1.94189907 -20.29296875 1.109375 C-19.13796875 0.70323975 -17.98296875 0.29710449 -16.79296875 -0.12133789 C-15.70757813 -0.4899292 -14.6221875 -0.85852051 -13.50390625 -1.23828125 C-12.54532715 -1.56965088 -11.58674805 -1.90102051 -10.59912109 -2.24243164 C-6.24443894 -3.19370486 -3.72891409 -2.33618714 0 0 Z " fill="#E6A71F" transform="translate(558.91796875,216.828125)"/>
<path d="M0 0 C2.67791637 3.78607903 3.90143092 7.54662097 5.12109375 11.99609375 C5.30712662 12.66608902 5.49315948 13.33608429 5.68482971 14.02638245 C6.27607882 16.16155788 6.85705573 18.29936494 7.4375 20.4375 C7.82286719 21.83808356 8.20892947 23.23847606 8.59570312 24.63867188 C9.17021121 26.71967156 9.74397237 28.8008535 10.31460571 30.88291931 C11.88893643 36.62564936 13.51708242 42.35164839 15.16333008 48.07421875 C18.30805496 59.07112069 18.30805496 59.07112069 18 64 C16.3359375 64.73828125 16.3359375 64.73828125 14 65 C11.4765625 63.48046875 11.4765625 63.48046875 8.625 61.1875 C7.54817944 60.34078633 6.47000175 59.49579639 5.390625 58.65234375 C4.83181641 58.21132324 4.27300781 57.77030273 3.69726562 57.31591797 C0.9819949 55.21072389 -1.81915486 53.2319257 -4.625 51.25 C-5.81021643 50.40800318 -6.99510204 49.56554053 -8.1796875 48.72265625 C-8.79553711 48.28453613 -9.41138672 47.84641602 -10.04589844 47.39501953 C-14.38367865 44.29830837 -18.70017604 41.17193902 -23.0168457 38.04589844 C-26.99176378 35.16813736 -30.97435139 32.30223469 -34.97265625 29.45703125 C-35.7831543 28.87800049 -36.59365234 28.29896973 -37.42871094 27.70239258 C-38.97485794 26.59820546 -40.52354248 25.49755965 -42.07519531 24.40112305 C-46.08636591 21.52963571 -49.6277656 18.60411692 -53 15 C-44.75717416 11.56272376 -36.36121134 8.58647973 -27.93896484 5.6262207 C-25.60799048 4.80651849 -23.27854589 3.98257304 -20.94921875 3.15820312 C-19.45842189 2.63256128 -17.96753954 2.10716181 -16.4765625 1.58203125 C-15.78486969 1.3372554 -15.09317688 1.09247955 -14.38052368 0.84028625 C-4.59381219 -2.59138124 -4.59381219 -2.59138124 0 0 Z " fill="#E7A820" transform="translate(666,177)"/>
<path d="M0 0 C7.01308017 5.73843497 13.3214222 12.17616271 19.71484375 18.58203125 C20.93780674 19.80431983 22.16091807 21.02645999 23.38417053 22.24845886 C25.93327776 24.79609892 28.48058492 27.34552142 31.02661133 29.89624023 C34.29740478 33.17276689 37.57271631 36.44473478 40.84935665 39.71541309 C43.36891433 42.2313696 45.8861008 44.74968753 48.40255928 47.26874352 C49.61035233 48.47720519 50.8188929 49.68492023 52.02818108 50.89188576 C53.70862984 52.56981138 55.38586782 54.25088007 57.06225586 55.93286133 C57.56554916 56.4341304 58.06884247 56.93539948 58.58738708 57.45185852 C62 60.88573004 62 60.88573004 62 62 C-39.64 62 -141.28 62 -246 62 C-246 77.51 -246 93.02 -246 109 C-145.02 109 -44.04 109 60 109 C58.16614077 112.66771845 56.74937171 114.46834996 53.875 117.25 C53.15054687 117.95640625 52.42609375 118.6628125 51.6796875 119.390625 C51.12539063 119.92171875 50.57109375 120.4528125 50 121 C49.34 120.67 48.68 120.34 48 120 C49.30208333 118.50260417 50.60416667 117.00520833 51.90625 115.5078125 C53.19572458 114.04063579 53.19572458 114.04063579 53 112 C52.37307589 111.99864347 51.74615179 111.99728694 51.10022998 111.99588931 C13.96549643 111.91528569 -23.16919841 111.82435025 -60.30387296 111.71994839 C-64.76003619 111.70742912 -69.21619966 111.69499641 -73.67236328 111.68261719 C-74.55952663 111.68015119 -75.44668997 111.6776852 -76.36073706 111.67514448 C-90.73634608 111.63539202 -105.111963 111.6026557 -119.48759499 111.57250018 C-134.23203986 111.5414153 -148.97645117 111.50281865 -163.72085834 111.45720994 C-172.82313 111.42929192 -181.92537704 111.40727328 -191.02768007 111.39273749 C-197.26462201 111.38221692 -203.50151636 111.36441745 -209.73842248 111.34083296 C-213.33985543 111.32743123 -216.94122151 111.31729738 -220.54268074 111.31578636 C-224.44309017 111.31406628 -228.34334578 111.2970487 -232.24371338 111.2784729 C-233.9596538 111.281375 -233.9596538 111.281375 -235.71025968 111.28433573 C-236.75279236 111.27687024 -237.79532504 111.26940475 -238.86944962 111.26171303 C-239.77014624 111.25943471 -240.67084286 111.25715638 -241.59883332 111.25480902 C-244.15468232 110.98358529 -245.79677318 110.29049967 -248 109 C-248.0505916 102.34313186 -248.0856876 95.68631306 -248.10986328 89.02929688 C-248.11993859 86.76332751 -248.13359918 84.49737119 -248.15087891 82.23144531 C-248.17506011 78.97978499 -248.18646763 75.72829613 -248.1953125 72.4765625 C-248.21079636 70.94994492 -248.21079636 70.94994492 -248.22659302 69.39248657 C-248.22674408 68.45166229 -248.22689514 67.51083801 -248.22705078 66.54150391 C-248.231492 65.71099518 -248.23593323 64.88048645 -248.24050903 64.02481079 C-248 62 -248 62 -246 60 C-243.80875814 59.75160301 -243.80875814 59.75160301 -241.02184105 59.75390434 C-239.96239009 59.74992225 -238.90293914 59.74594015 -237.81138361 59.74183738 C-236.63825195 59.74766307 -235.4651203 59.75348875 -234.25643921 59.75949097 C-233.01741399 59.75778212 -231.77838878 59.75607327 -230.50181735 59.75431263 C-227.05157524 59.75157895 -223.60155789 59.7578635 -220.15134287 59.76786876 C-216.43491516 59.7764791 -212.71849481 59.77358482 -209.00205994 59.77206421 C-202.55941486 59.77101382 -196.11681018 59.77730644 -189.67417526 59.78853989 C-180.3591307 59.80477116 -171.04410574 59.81000045 -161.72904857 59.81251587 C-146.61720619 59.81689671 -131.50538536 59.83021634 -116.39355469 59.84912109 C-101.7109386 59.86746985 -87.02832836 59.88163126 -72.34570312 59.89013672 C-71.44116891 59.89066217 -70.5366347 59.89118761 -69.60469036 59.89172898 C-65.06705807 59.89433899 -60.52942575 59.89686643 -55.99179339 59.89935279 C-18.32784704 59.92009739 19.3360748 59.95533348 57 60 C56.05643107 58.89002247 55.11154007 57.78116873 54.16610527 56.67278004 C53.37704271 55.74635723 53.37704271 55.74635723 52.57203948 54.80121881 C50.36677074 52.27445559 48.01921626 49.9154071 45.63720703 47.55541992 C45.13889877 47.06017822 44.64059052 46.56493652 44.12718201 46.0546875 C43.05943429 44.99402207 41.99055595 43.93449377 40.92062759 42.87602806 C39.22870379 41.20166211 37.5404922 39.52363238 35.85324097 37.84455872 C31.0607332 33.0763766 26.26242997 28.3140566 21.45996094 23.5559082 C18.51165283 20.63430369 15.56817055 17.70790972 12.62765121 14.77846718 C11.5075311 13.66456593 10.3855158 12.55256717 9.26160049 11.44249535 C7.69867823 9.89868197 6.14191435 8.34890512 4.58642578 6.79760742 C3.69851349 5.91715256 2.8106012 5.03669769 1.89578247 4.12956238 C0 2 0 2 0 0 Z " fill="#F3B920" transform="translate(580,489)"/>
<path d="M0 0 C0.66 0 1.32 0 2 0 C2.11598804 7.73648105 2.20476267 15.47287165 2.25906086 23.21002483 C2.28512544 26.8030086 2.32046329 30.39539636 2.37719727 33.98803711 C2.43163335 37.45698186 2.46144416 40.92535439 2.47438622 44.39469337 C2.48808449 46.35851051 2.52710018 48.32209825 2.56648254 50.28556824 C2.56923746 59.04565711 2.56923746 59.04565711 0.01953125 63.3203125 C-4.06758023 65.5938674 -7.19806514 65.63576085 -11.80078125 65.48828125 C-13.0553437 65.47766914 -13.0553437 65.47766914 -14.33525085 65.46684265 C-16.99526052 65.43894985 -19.65313139 65.37622481 -22.3125 65.3125 C-24.12041221 65.28741034 -25.92835757 65.26459833 -27.73632812 65.24414062 C-32.15837073 65.18914042 -36.57882331 65.10290643 -41 65 C-37.73626212 58.87358848 -34.43053786 52.91030777 -30.5 47.1875 C-26.23565665 40.90660712 -22.12632648 34.5372939 -18.0625 28.125 C-17.47114258 27.19437744 -16.87978516 26.26375488 -16.27050781 25.30493164 C-13.95336291 21.65812647 -11.63703216 18.01088959 -9.33349609 14.35546875 C-7.8117274 11.94140498 -6.28171795 9.53275855 -4.75 7.125 C-4.29633057 6.39941895 -3.84266113 5.67383789 -3.37524414 4.92626953 C-2.30340141 3.24894418 -1.15900984 1.61832115 0 0 Z " fill="#E7A81F" transform="translate(708,361)"/>
<path d="M0 0 C4.86634517 2.57089934 9.22361005 5.67083015 11 11 C11.7337659 17.88055892 11.1180134 22.3949262 7 28 C2.82864341 31.9106468 -1.32556374 32.36527972 -6.9765625 32.28125 C-11.5654857 31.64340739 -14.37106718 28.71392374 -17.3125 25.375 C-20.49805822 20.89162177 -20.33703586 17.37384959 -20 12 C-18.90664081 6.77617278 -15.11384131 4.06597607 -11 1 C-7.52895297 -0.73552351 -3.79521193 -0.46720147 0 0 Z " fill="#0A0601" transform="translate(351,377)"/>
<path d="M0 0 C3.70194899 3.34938242 6.26191157 5.88895576 7.0078125 10.99609375 C7.19300392 15.54562952 6.96313423 18.65971604 5 22.8125 C0.70746492 27.44391943 -2.44544564 29.61478629 -8.8125 29.9375 C-14.29545952 29.72862535 -17.56123311 28.27569035 -21.375 24.375 C-24.9519562 20.45188675 -24.94036468 16.20457228 -24.7890625 11.1015625 C-24.14672745 6.87184682 -22.4767028 4.26279226 -19.375 1.375 C-13.51761235 -2.84776784 -6.40668403 -3.08469972 0 0 Z " fill="#0A0600" transform="translate(355.375,322.625)"/>
<path d="M0 0 C7.01308017 5.73843497 13.3214222 12.17616271 19.71484375 18.58203125 C20.93780674 19.80431983 22.16091807 21.02645999 23.38417053 22.24845886 C25.93327776 24.79609892 28.48058492 27.34552142 31.02661133 29.89624023 C34.29740478 33.17276689 37.57271631 36.44473478 40.84935665 39.71541309 C43.36891433 42.2313696 45.8861008 44.74968753 48.40255928 47.26874352 C49.61035233 48.47720519 50.8188929 49.68492023 52.02818108 50.89188576 C53.70862984 52.56981138 55.38586782 54.25088007 57.06225586 55.93286133 C57.56554916 56.4341304 58.06884247 56.93539948 58.58738708 57.45185852 C62 60.88573004 62 60.88573004 62 62 C-39.31 62 -140.62 62 -245 62 C-245 61.67 -245 61.34 -245 61 C-145.34 60.67 -45.68 60.34 57 60 C53.25642571 55.63249666 49.68943581 51.57018521 45.63720703 47.55541992 C45.13889877 47.06017822 44.64059052 46.56493652 44.12718201 46.0546875 C43.05943429 44.99402207 41.99055595 43.93449377 40.92062759 42.87602806 C39.22870379 41.20166211 37.5404922 39.52363238 35.85324097 37.84455872 C31.0607332 33.0763766 26.26242997 28.3140566 21.45996094 23.5559082 C18.51165283 20.63430369 15.56817055 17.70790972 12.62765121 14.77846718 C11.5075311 13.66456593 10.3855158 12.55256717 9.26160049 11.44249535 C7.69867823 9.89868197 6.14191435 8.34890512 4.58642578 6.79760742 C3.69851349 5.91715256 2.8106012 5.03669769 1.89578247 4.12956238 C0 2 0 2 0 0 Z " fill="#F2C526" transform="translate(580,489)"/>
<path d="M0 0 C0.66 0 1.32 0 2 0 C2 19.8 2 39.6 2 60 C1.01 60.495 1.01 60.495 0 61 C-0.15372667 53.34200793 -0.30190825 45.68392575 -0.4429636 38.02569008 C-0.50863284 34.46986634 -0.5762292 30.91410079 -0.64819336 27.35839844 C-0.73079675 23.27288053 -0.80508335 19.18724857 -0.87890625 15.1015625 C-0.90594131 13.82133209 -0.93297638 12.54110168 -0.96083069 11.22207642 C-0.98092697 10.04100311 -1.00102325 8.85992981 -1.02172852 7.64306641 C-1.04171402 6.59937897 -1.06169952 5.55569153 -1.08229065 4.4803772 C-1 2 -1 2 0 0 Z " fill="#CBA31E" transform="translate(708,361)"/>
<path d="M0 0 C3.64720572 0.55621874 5.02019037 1.79107068 7.3125 4.625 C10.66929801 8.65025129 14.24479876 12.34752463 18 16 C17.34 16.66 16.68 17.32 16 18 C13.32529045 15.38308836 10.66165519 12.75518292 8 10.125 C7.236875 9.37863281 6.47375 8.63226562 5.6875 7.86328125 C4.965625 7.14785156 4.24375 6.43242188 3.5 5.6953125 C2.8296875 5.03547363 2.159375 4.37563477 1.46875 3.69580078 C0 2 0 2 0 0 Z " fill="#D9AC20" transform="translate(668,519)"/>
<path d="M0 0 C0.33 0 0.66 0 1 0 C1 11.55 1 23.1 1 35 C0.67 35 0.34 35 0 35 C-0.4640625 33.329375 -0.4640625 33.329375 -0.9375 31.625 C-1.82326483 28.2054845 -1.82326483 28.2054845 -3 26 C-2.34 26 -1.68 26 -1 26 C-0.67 17.42 -0.34 8.84 0 0 Z " fill="#E09D1C" transform="translate(707,386)"/>
<path d="M0 0 C4.56048012 3.61251516 8.01665146 6.98797445 11 12 C8.90049414 12.86555948 6.7952093 13.71711277 4.6875 14.5625 C2.92986328 15.27599609 2.92986328 15.27599609 1.13671875 16.00390625 C-2 17 -2 17 -5 16 C-1.04 14.35 2.92 12.7 7 11 C4.42191093 6.24506204 4.42191093 6.24506204 1.8125 3.8125 C1.214375 3.214375 0.61625 2.61625 0 2 C0 1.34 0 0.68 0 0 Z " fill="#E8B925" transform="translate(418,322)"/>
<path d="M0 0 C0.54398438 0.27199219 1.08796875 0.54398438 1.6484375 0.82421875 C1.1121875 1.03046875 0.5759375 1.23671875 0.0234375 1.44921875 C-5.87848367 4.86612048 -9.26190888 9.88257716 -12.3515625 15.82421875 C-13.3415625 15.49421875 -14.3315625 15.16421875 -15.3515625 14.82421875 C-13.73095217 10.82989094 -10.95817077 8.02863554 -7.9765625 5.01171875 C-7.49445312 4.49673828 -7.01234375 3.98175781 -6.515625 3.45117188 C-2.90157254 -0.21689496 -2.90157254 -0.21689496 0 0 Z " fill="#E2AF20" transform="translate(665.3515625,632.17578125)"/>
<path d="M0 0 C4.59306496 1.4859916 7.43569245 3.85014682 11 7 C7.55549263 9.29633824 5.06187717 9.54016485 1 10 C1.515625 9.401875 2.03125 8.80375 2.5625 8.1875 C3.036875 7.465625 3.51125 6.74375 4 6 C3.0022242 3.00667261 2.2477975 2.05233685 0 0 Z " fill="#ECB826" transform="translate(613,258)"/>
<path d="M0 0 C5.94 0 11.88 0 18 0 C17.01 1.65 16.02 3.3 15 5 C14.67 4.34 14.34 3.68 14 3 C11.51307973 2.60693989 11.51307973 2.60693989 8.625 2.5 C4.74770285 2.29539329 3.30786016 2.20524011 0 0 Z " fill="#EFBB22" transform="translate(525,354)"/>
<path d="M0 0 C3.21524305 1.40844718 5.32183868 3.10344786 7.75 5.625 C8.67039062 6.57246094 8.67039062 6.57246094 9.609375 7.5390625 C10.29773438 8.26222656 10.29773438 8.26222656 11 9 C10.34 9.66 9.68 10.32 9 11 C7.33333333 9.33333333 5.66666667 7.66666667 4 6 C3.236875 5.278125 2.47375 4.55625 1.6875 3.8125 C0 2 0 2 0 0 Z " fill="#D8AA21" transform="translate(739,513)"/>
<path d="M0 0 C1.32 0.33 2.64 0.66 4 1 C2.71480435 3.86697492 1.42870746 5.97607712 -1 8 C-1.66 8 -2.32 8 -3 8 C-3.33 7.01 -3.66 6.02 -4 5 C-2.68 5 -1.36 5 0 5 C-0.33 4.01 -0.66 3.02 -1 2 C-0.67 1.34 -0.34 0.68 0 0 Z " fill="#DEAA21" transform="translate(723,642)"/>
<path d="M0 0 C2.53910197 0.38520564 3.72751123 0.70097943 5.484375 2.62890625 C5.90203125 3.26699219 6.3196875 3.90507813 6.75 4.5625 C7.17796875 5.20316406 7.6059375 5.84382812 8.046875 6.50390625 C8.36140625 6.99761719 8.6759375 7.49132812 9 8 C6 8 6 8 4.39453125 6.7578125 C3.87246094 6.21898437 3.35039063 5.68015625 2.8125 5.125 C2.28269531 4.59132813 1.75289062 4.05765625 1.20703125 3.5078125 C0 2 0 2 0 0 Z " fill="#D1A41F" transform="translate(668,519)"/>
<path d="M0 0 C0.33 0 0.66 0 1 0 C0.67 2.31 0.34 4.62 0 7 C-1.32 7.33 -2.64 7.66 -4 8 C-4 8.66 -4 9.32 -4 10 C-4.66 9.67 -5.32 9.34 -6 9 C-5.02501855 7.4972763 -4.04490611 5.99788037 -3.0625 4.5 C-2.51722656 3.6646875 -1.97195313 2.829375 -1.41015625 1.96875 C-0.94480469 1.3190625 -0.47945312 0.669375 0 0 Z " fill="#EBB522" transform="translate(596,372)"/>
<path d="M0 0 C1.9375 1 1.9375 1 4 3 C4.66549451 5.69924572 4.81680763 8.20631637 5 11 C4.01 11 3.02 11 2 11 C2.0928125 9.3603125 2.0928125 9.3603125 2.1875 7.6875 C2.35597914 4.07873917 2.35597914 4.07873917 0.5 2.0625 C0.005 1.711875 -0.49 1.36125 -1 1 C-0.67 0.67 -0.34 0.34 0 0 Z " fill="#E8B224" transform="translate(664,176)"/>
<path d="M0 0 C0.99 0.33 1.98 0.66 3 1 C3 1.66 3 2.32 3 3 C3.66 3 4.32 3 5 3 C5 3.66 5 4.32 5 5 C5.66 5 6.32 5 7 5 C8.625 7 8.625 7 10 9 C9.67 9.66 9.34 10.32 9 11 C7.49403892 9.54782324 5.99537896 8.08807139 4.5 6.625 C3.6646875 5.81289063 2.829375 5.00078125 1.96875 4.1640625 C0 2 0 2 0 0 Z " fill="#D8AE22" transform="translate(687,538)"/>
<path d="M0 0 C0.92538169 3.70152678 1.08174162 4.63458162 0 8 C-0.99 8 -1.98 8 -3 8 C-3.33 8.66 -3.66 9.32 -4 10 C-4.66 9.67 -5.32 9.34 -6 9 C-4.02 6.03 -2.04 3.06 0 0 Z " fill="#EFB925" transform="translate(454,397)"/>
<path d="M0 0 C0.99 0.66 1.98 1.32 3 2 C1.79157144 6.43090471 0.48331435 8.98112756 -3 12 C-2.690625 11.319375 -2.38125 10.63875 -2.0625 9.9375 C-0.86629351 6.63034088 -0.40994603 3.48454122 0 0 Z " fill="#EBB725" transform="translate(401,400)"/>
<path d="M0 0 C1.50433594 0.01353516 1.50433594 0.01353516 3.0390625 0.02734375 C3.80992187 0.03894531 4.58078125 0.05054688 5.375 0.0625 C5.375 0.3925 5.375 0.7225 5.375 1.0625 C-3.05357143 3.34821429 -3.05357143 3.34821429 -7.625 3.0625 C-7.625 2.4025 -7.625 1.7425 -7.625 1.0625 C-4.98041621 -0.25979189 -2.94738699 -0.03427194 0 0 Z " fill="#EBB625" transform="translate(344.625,318.9375)"/>
<path d="M0 0 C0 3.15081975 -0.27898465 4.41847698 -2 7 C-4.125 7.75 -4.125 7.75 -6 8 C-4.26440562 4.942048 -2.61527381 2.36620011 0 0 Z " fill="#D9A920" transform="translate(647,648)"/>
<path d="M0 0 C0.33 0.99 0.66 1.98 1 3 C0.01 4.485 0.01 4.485 -1 6 C-1.99 5.67 -2.98 5.34 -4 5 C-4.33 5.66 -4.66 6.32 -5 7 C-5.66 6.67 -6.32 6.34 -7 6 C-5.71034824 4.62437146 -4.37310707 3.29233607 -3 2 C-2.34 2 -1.68 2 -1 2 C-0.67 1.34 -0.34 0.68 0 0 Z " fill="#EBB024" transform="translate(696,385)"/>
</svg>
